<svg width="32" height="32" viewBox="0 0 32 32" fill="none" xmlns="http://www.w3.org/2000/svg">
<path fill-rule="evenodd" clip-rule="evenodd" d="M4 1C2.34315 1 1 2.34315 1 4V28C1 29.6569 2.34315 31 4 31H12.0198C11.4422 30.7169 10.912 30.3736 10.4292 29.9703C8.80973 28.6171 8 26.6394 8 24.0372C8 22.5452 8.29288 21.2962 8.87865 20.29C9.46441 19.2491 10.2397 18.4164 11.2045 17.7918C12.2037 17.1673 13.3408 16.7162 14.6157 16.4387C15.9251 16.1264 17.2861 15.9356 18.6989 15.8662L23.4539 15.6059V14.5651C23.4539 11.7893 22.2996 10.4015 19.991 10.4015C18.6816 10.4015 17.7341 10.7658 17.1483 11.4944C16.5625 12.223 16.2697 13.0384 16.2697 13.9405L8.72359 13.6283C8.72359 12.4486 8.98202 11.2862 9.49887 10.1413C10.0157 8.99628 10.7565 7.97274 11.7213 7.07063C12.6861 6.13383 13.8577 5.38786 15.236 4.83271C16.6142 4.27757 18.1648 4 19.8876 4C23.5056 4 26.2622 4.91945 28.1573 6.75836C30.0524 8.56258 31 11.2515 31 14.8253V4C31 2.34315 29.6569 1 28 1H4ZM23.7124 31V29.2416C23.0571 29.9315 22.2602 30.5176 21.3217 31H23.7124ZM16.6315 21.5911C17.3551 21.1747 18.2854 20.9318 19.4225 20.8625L23.4539 20.6022V21.7472C23.4539 23.2045 22.9888 24.2974 22.0584 25.026C21.1625 25.7547 20.0255 26.119 18.6472 26.119C17.7513 26.119 17.0105 25.9455 16.4247 25.5985C15.839 25.2169 15.5461 24.575 15.5461 23.6729C15.5461 22.7014 15.9079 22.0074 16.6315 21.5911Z" fill="#FA7268"/>
</svg>
