<svg width="65" height="15" viewBox="0 0 65 15" fill="none" xmlns="http://www.w3.org/2000/svg">
<rect width="65" height="15" fill="white"/>
<path d="M4.78799 2.02401C5.21199 2.02401 5.59999 2.08801 5.95199 2.21601C6.31199 2.34401 6.61999 2.53201 6.87599 2.78001C7.13199 3.02801 7.32799 3.33201 7.46399 3.69201C7.60799 4.04401 7.67999 4.45201 7.67999 4.91601C7.67999 5.38001 7.60799 5.79201 7.46399 6.15201C7.32799 6.51201 7.13199 6.81601 6.87599 7.06401C6.61999 7.30401 6.31199 7.48801 5.95199 7.61601C5.59999 7.74401 5.21199 7.80801 4.78799 7.80801H2.75999V11H0.899994V2.02401H4.78799ZM2.74799 6.16401H4.54799C4.90799 6.16401 5.20399 6.06001 5.43599 5.85201C5.67599 5.63601 5.79599 5.32401 5.79599 4.91601C5.79599 4.50801 5.67599 4.19601 5.43599 3.98001C5.20399 3.76401 4.90799 3.65601 4.54799 3.65601H2.74799V6.16401Z" fill="black"/>
<path d="M12.2639 6.42801C11.7599 6.42801 11.3599 6.56001 11.0639 6.82401C10.7679 7.08001 10.6199 7.42401 10.6199 7.85601V11H8.8679V4.79601H10.5599V5.50401C10.6959 5.29601 10.8919 5.11601 11.1479 4.96401C11.4119 4.81201 11.7839 4.73601 12.2639 4.73601V6.42801Z" fill="black"/>
<path d="M16.3671 4.67601C16.8391 4.67601 17.2751 4.75201 17.6751 4.90401C18.0831 5.05601 18.4311 5.27601 18.7191 5.56401C19.0151 5.84401 19.2471 6.18401 19.4151 6.58401C19.5831 6.97601 19.6671 7.41601 19.6671 7.90401C19.6671 8.39201 19.5831 8.83601 19.4151 9.23601C19.2471 9.62801 19.0151 9.96801 18.7191 10.256C18.4311 10.536 18.0831 10.752 17.6751 10.904C17.2751 11.056 16.8391 11.132 16.3671 11.132C15.8951 11.132 15.4551 11.056 15.0471 10.904C14.6471 10.752 14.2991 10.536 14.0031 10.256C13.7071 9.96801 13.4751 9.62801 13.3071 9.23601C13.1471 8.83601 13.0671 8.39201 13.0671 7.90401C13.0671 7.41601 13.1471 6.97601 13.3071 6.58401C13.4751 6.18401 13.7071 5.84401 14.0031 5.56401C14.2991 5.27601 14.6471 5.05601 15.0471 4.90401C15.4551 4.75201 15.8951 4.67601 16.3671 4.67601ZM16.3671 6.17601C15.9111 6.17601 15.5431 6.32801 15.2631 6.63201C14.9831 6.92801 14.8431 7.35201 14.8431 7.90401C14.8431 8.44801 14.9831 8.87201 15.2631 9.17601C15.5431 9.47201 15.9111 9.62001 16.3671 9.62001C16.8231 9.62001 17.1911 9.47201 17.4711 9.17601C17.7511 8.87201 17.8911 8.44801 17.8911 7.90401C17.8911 7.35201 17.7511 6.92801 17.4711 6.63201C17.1911 6.32801 16.8231 6.17601 16.3671 6.17601Z" fill="black"/>
<path d="M21.9314 1.71201C22.2274 1.71201 22.4754 1.81601 22.6754 2.02401C22.8834 2.22401 22.9874 2.47201 22.9874 2.76801C22.9874 3.05601 22.8834 3.30401 22.6754 3.51201C22.4754 3.71201 22.2274 3.81201 21.9314 3.81201C21.6354 3.81201 21.3874 3.71201 21.1874 3.51201C20.9874 3.30401 20.8874 3.05601 20.8874 2.76801C20.8874 2.47201 20.9874 2.22401 21.1874 2.02401C21.3874 1.81601 21.6354 1.71201 21.9314 1.71201ZM22.8194 11.6C22.8194 11.992 22.7554 12.344 22.6274 12.656C22.5074 12.968 22.3354 13.232 22.1114 13.448C21.8874 13.672 21.6154 13.844 21.2954 13.964C20.9834 14.084 20.6354 14.144 20.2514 14.144C20.1154 14.144 20.0034 14.14 19.9154 14.132C19.8194 14.132 19.7274 14.124 19.6394 14.108V12.584C19.7434 12.608 19.8794 12.62 20.0474 12.62C20.3514 12.62 20.5954 12.532 20.7794 12.356C20.9714 12.18 21.0674 11.94 21.0674 11.636V4.79601H22.8194V11.6Z" fill="black"/>
<path d="M26.0716 8.45601C26.0876 8.84001 26.2076 9.14801 26.4316 9.38001C26.6556 9.60401 26.9676 9.71601 27.3676 9.71601C27.6716 9.71601 27.9196 9.65601 28.1116 9.53601C28.3116 9.41601 28.4436 9.24801 28.5076 9.03201L30.2716 9.11601C30.2156 9.41201 30.1036 9.68401 29.9356 9.93201C29.7676 10.172 29.5556 10.384 29.2996 10.568C29.0516 10.744 28.7636 10.884 28.4356 10.988C28.1156 11.084 27.7756 11.132 27.4156 11.132C26.9436 11.132 26.5076 11.06 26.1076 10.916C25.7156 10.764 25.3796 10.548 25.0996 10.268C24.8196 9.98801 24.5996 9.64801 24.4396 9.24801C24.2876 8.84801 24.2116 8.40001 24.2116 7.90401C24.2116 7.40001 24.2876 6.95201 24.4396 6.56001C24.5996 6.16001 24.8196 5.82001 25.0996 5.54001C25.3796 5.26001 25.7116 5.04801 26.0956 4.90401C26.4796 4.75201 26.9036 4.67601 27.3676 4.67601C27.8156 4.67601 28.2196 4.74801 28.5796 4.89201C28.9476 5.02801 29.2596 5.22801 29.5156 5.49201C29.7796 5.75601 29.9796 6.08001 30.1156 6.46401C30.2596 6.84801 30.3316 7.28001 30.3316 7.76001V8.45601H26.0716ZM27.3556 6.04401C26.9796 6.04401 26.6756 6.15201 26.4436 6.36801C26.2196 6.58401 26.0956 6.89201 26.0716 7.29201H28.5676C28.5516 6.90801 28.4436 6.60401 28.2436 6.38001C28.0516 6.15601 27.7556 6.04401 27.3556 6.04401Z" fill="black"/>
<path d="M34.5635 4.67601C34.9395 4.67601 35.2915 4.73201 35.6195 4.84401C35.9555 4.94801 36.2515 5.10401 36.5075 5.31201C36.7715 5.52001 36.9875 5.77201 37.1555 6.06801C37.3315 6.36401 37.4475 6.70001 37.5035 7.07601L35.7875 7.22001C35.7475 6.90001 35.6155 6.64801 35.3915 6.46401C35.1755 6.27201 34.8995 6.17601 34.5635 6.17601C34.1555 6.17601 33.8195 6.32801 33.5555 6.63201C33.2915 6.92801 33.1595 7.35201 33.1595 7.90401C33.1595 8.45601 33.2915 8.88001 33.5555 9.17601C33.8195 9.47201 34.1555 9.62001 34.5635 9.62001C34.9075 9.62001 35.1875 9.53201 35.4035 9.35601C35.6195 9.17201 35.7515 8.92401 35.7995 8.61201L37.5035 8.76801C37.4395 9.13601 37.3235 9.46801 37.1555 9.76401C36.9875 10.052 36.7715 10.3 36.5075 10.508C36.2515 10.708 35.9595 10.864 35.6315 10.976C35.3035 11.08 34.9475 11.132 34.5635 11.132C34.1075 11.132 33.6835 11.06 33.2915 10.916C32.9075 10.764 32.5715 10.552 32.2835 10.28C32.0035 10 31.7835 9.66001 31.6235 9.26001C31.4635 8.86001 31.3835 8.40801 31.3835 7.90401C31.3835 7.39201 31.4635 6.93601 31.6235 6.53601C31.7835 6.13601 32.0035 5.80001 32.2835 5.52801C32.5635 5.24801 32.8995 5.03601 33.2915 4.89201C33.6835 4.74801 34.1075 4.67601 34.5635 4.67601Z" fill="black"/>
<path d="M40.957 8.61201C40.957 8.95601 41.049 9.20001 41.233 9.34401C41.425 9.48001 41.645 9.54801 41.893 9.54801C42.021 9.54801 42.125 9.54401 42.205 9.53601C42.293 9.52001 42.369 9.50401 42.433 9.48801V11.048C42.305 11.064 42.169 11.08 42.025 11.096C41.889 11.112 41.701 11.12 41.461 11.12C41.125 11.12 40.817 11.08 40.537 11C40.257 10.912 40.017 10.784 39.817 10.616C39.625 10.448 39.473 10.232 39.361 9.96801C39.257 9.70401 39.205 9.39201 39.205 9.03201L39.217 6.30801H38.089V4.79601H39.229L39.241 2.74401H40.993L40.981 4.79601H42.433V6.30801H40.969L40.957 8.61201Z" fill="black"/>
<path d="M46.76 4.78999C47.6 4.78999 48.24 5.00199 48.68 5.42599C49.12 5.84199 49.34 6.46199 49.34 7.28599V11.114H47.648V10.61C47.472 10.794 47.252 10.946 46.988 11.066C46.732 11.186 46.424 11.246 46.064 11.246C45.44 11.246 44.94 11.09 44.564 10.778C44.188 10.466 44 10.01 44 9.40999C44 9.06599 44.068 8.77799 44.204 8.54599C44.34 8.30599 44.52 8.11399 44.744 7.96999C44.976 7.82599 45.24 7.72199 45.536 7.65799C45.84 7.58599 46.156 7.54199 46.484 7.52599L47.588 7.46599V7.22599C47.588 6.58599 47.32 6.26599 46.784 6.26599C46.48 6.26599 46.26 6.34999 46.124 6.51799C45.988 6.68599 45.92 6.87399 45.92 7.08199L44.168 7.00999C44.168 6.73799 44.228 6.46999 44.348 6.20599C44.468 5.94199 44.64 5.70599 44.864 5.49799C45.088 5.28199 45.36 5.10999 45.68 4.98199C46 4.85399 46.36 4.78999 46.76 4.78999ZM46.652 8.67799C46.388 8.69399 46.172 8.74999 46.004 8.84599C45.836 8.94199 45.752 9.10199 45.752 9.32599C45.752 9.53399 45.82 9.68199 45.956 9.76999C46.092 9.84999 46.264 9.88999 46.472 9.88999C46.792 9.88999 47.056 9.80599 47.264 9.63799C47.48 9.46999 47.588 9.21799 47.588 8.88199V8.61799L46.652 8.67799Z" fill="#FA7268"/>
<path d="M54.3397 4.78999C54.6997 4.78999 55.0277 4.84599 55.3237 4.95799C55.6197 5.06999 55.8717 5.23399 56.0797 5.44999C56.2957 5.66599 56.4637 5.93399 56.5837 6.25399C56.7037 6.56599 56.7637 6.92199 56.7637 7.32199V11.114H55.0117V7.65799C55.0117 7.25799 54.9117 6.95399 54.7117 6.74599C54.5197 6.52999 54.2557 6.42199 53.9197 6.42199C53.5677 6.42199 53.2877 6.53799 53.0797 6.76999C52.8717 6.99399 52.7677 7.29399 52.7677 7.66999V11.114H51.0157V4.90999H52.6717V5.54599C52.8077 5.32999 53.0117 5.14999 53.2837 5.00599C53.5637 4.86199 53.9157 4.78999 54.3397 4.78999Z" fill="#FA7268"/>
<path d="M61.7577 4.78999C62.1177 4.78999 62.4457 4.84599 62.7417 4.95799C63.0377 5.06999 63.2897 5.23399 63.4977 5.44999C63.7137 5.66599 63.8817 5.93399 64.0017 6.25399C64.1217 6.56599 64.1817 6.92199 64.1817 7.32199V11.114H62.4297V7.65799C62.4297 7.25799 62.3297 6.95399 62.1297 6.74599C61.9377 6.52999 61.6737 6.42199 61.3377 6.42199C60.9857 6.42199 60.7057 6.53799 60.4977 6.76999C60.2897 6.99399 60.1857 7.29399 60.1857 7.66999V11.114H58.4337V4.90999H60.0897V5.54599C60.2257 5.32999 60.4297 5.14999 60.7017 5.00599C60.9817 4.86199 61.3337 4.78999 61.7577 4.78999Z" fill="#FA7268"/>
</svg>
