<svg width="256" height="256" viewBox="0 0 256 256" fill="none" xmlns="http://www.w3.org/2000/svg">
<rect width="256" height="256" fill="white"/>
<path fill-rule="evenodd" clip-rule="evenodd" d="M28.7 4C15.0586 4 4 15.0586 4 28.7V226.3C4 239.941 15.0586 251 28.7 251H94.7301C89.9739 248.669 85.6085 245.843 81.6338 242.522C68.3001 231.381 61.6333 215.098 61.6333 193.673C61.6333 181.389 64.0447 171.105 68.8675 162.821C73.6903 154.251 80.0735 147.395 88.017 142.253C96.2442 137.111 105.606 133.397 116.103 131.112C126.883 128.541 138.089 126.969 149.721 126.398L188.871 124.256V115.686C188.871 92.8323 179.367 81.4056 160.359 81.4056C149.579 81.4056 141.777 84.4051 136.954 90.4041C132.132 96.4031 129.72 103.116 129.72 110.544L67.5909 107.973C67.5909 98.2599 69.7186 88.6901 73.9741 79.2631C78.2295 69.8361 84.3289 61.4089 92.2724 53.9815C100.216 46.2685 109.862 40.1267 121.209 35.556C132.557 30.9853 145.324 28.7 159.508 28.7C189.296 28.7 211.992 36.2702 227.595 51.4105C243.198 66.2652 251 88.4044 251 117.828V28.7C251 15.0586 239.941 4 226.3 4H28.7ZM190.998 251V236.523C185.603 242.202 179.042 247.028 171.315 251H190.998ZM132.699 173.533C138.657 170.105 146.316 168.106 155.678 167.534L188.871 165.392V174.819C188.871 186.817 185.041 195.815 177.381 201.814C170.005 207.813 160.643 210.813 149.295 210.813C141.919 210.813 135.82 209.384 130.997 206.528C126.174 203.385 123.763 198.101 123.763 190.673C123.763 182.675 126.741 176.961 132.699 173.533Z" fill="#FA7268"/>
</svg>
